<?xml version="1.0" encoding="UTF-8" standalone="no"?>
<!DOCTYPE svg PUBLIC "-//W3C//DTD SVG 1.1//EN"
 "http://www.w3.org/Graphics/SVG/1.1/DTD/svg11.dtd">
<!-- Generated by graphviz version 2.40.1 (20161225.0304)
 -->
<!-- Title: dependencies Pages: 1 -->
<svg width="701pt" height="211pt"
 viewBox="0.00 0.00 701.00 211.00" xmlns="http://www.w3.org/2000/svg" xmlns:xlink="http://www.w3.org/1999/xlink">
<g id="graph0" class="graph" transform="scale(1 1) rotate(0) translate(4 207)">
<title>dependencies</title>
<polygon fill="#ffffff" stroke="transparent" points="-4,4 -4,-207 697,-207 697,4 -4,4"/>
<text text-anchor="start" x="325.5091" y="-42.4" font-family="sans-serif" font-weight="bold" font-size="14.00" fill="#000000">Legend</text>
<polygon fill="#ffffb3" stroke="transparent" points="112.5,-10 112.5,-30 132.5,-30 132.5,-10 112.5,-10"/>
<text text-anchor="start" x="136.129" y="-15.4" font-family="sans-serif" font-size="14.00" fill="#000000"> &#160;Declarations</text>
<polygon fill="#8dd3c7" stroke="transparent" points="225.5,-10 225.5,-30 245.5,-30 245.5,-10 225.5,-10"/>
<text text-anchor="start" x="249.2251" y="-15.4" font-family="sans-serif" font-size="14.00" fill="#000000"> &#160;Module</text>
<polygon fill="#80b1d3" stroke="transparent" points="311.5,-10 311.5,-30 331.5,-30 331.5,-10 311.5,-10"/>
<text text-anchor="start" x="335.2812" y="-15.4" font-family="sans-serif" font-size="14.00" fill="#000000"> &#160;Bootstrap</text>
<polygon fill="#fdb462" stroke="transparent" points="408.5,-10 408.5,-30 428.5,-30 428.5,-10 408.5,-10"/>
<text text-anchor="start" x="432.1732" y="-15.4" font-family="sans-serif" font-size="14.00" fill="#000000"> &#160;Providers</text>
<polygon fill="#fb8072" stroke="transparent" points="504.5,-10 504.5,-30 524.5,-30 524.5,-10 504.5,-10"/>
<text text-anchor="start" x="528.2258" y="-15.4" font-family="sans-serif" font-size="14.00" fill="#000000"> &#160;Exports</text>
<g id="clust1" class="cluster">
<title>cluster_ItemModuleModule</title>
<polygon fill="none" stroke="#000000" stroke-dasharray="1,5" points="8,-70 8,-195 685,-195 685,-70 8,-70"/>
</g>
<g id="clust2" class="cluster">
<title>cluster_ItemModuleModule_declarations</title>
<polygon fill="none" stroke="#000000" points="200,-78 200,-130 677,-130 677,-78 200,-78"/>
</g>
<g id="clust10" class="cluster">
<title>cluster_ItemModuleModule_providers</title>
<polygon fill="none" stroke="#000000" points="16,-78 16,-130 192,-130 192,-78 16,-78"/>
</g>
<!-- ListItemComponent -->
<g id="node1" class="node">
<title>ListItemComponent</title>
<polygon fill="#ffffb3" stroke="#000000" points="669.2674,-122 540.7326,-122 540.7326,-86 669.2674,-86 669.2674,-122"/>
<text text-anchor="middle" x="605" y="-99.8" font-family="Times,serif" font-size="14.00" fill="#000000">ListItemComponent</text>
</g>
<!-- ItemModuleModule -->
<g id="node5" class="node">
<title>ItemModuleModule</title>
<polygon fill="#8dd3c7" stroke="#000000" points="422.2562,-187 419.2562,-191 398.2562,-191 395.2562,-187 293.7438,-187 293.7438,-151 422.2562,-151 422.2562,-187"/>
<text text-anchor="middle" x="358" y="-164.8" font-family="Times,serif" font-size="14.00" fill="#000000">ItemModuleModule</text>
</g>
<!-- ListItemComponent&#45;&gt;ItemModuleModule -->
<g id="edge1" class="edge">
<title>ListItemComponent&#45;&gt;ItemModuleModule</title>
<path fill="none" stroke="#000000" d="M605,-122.1061C605,-141.3391 605,-169 605,-169 605,-169 432.5737,-169 432.5737,-169"/>
<polygon fill="#000000" stroke="#000000" points="432.5737,-165.5001 422.5737,-169 432.5737,-172.5001 432.5737,-165.5001"/>
</g>
<!-- FormComponent -->
<g id="node2" class="node">
<title>FormComponent</title>
<polygon fill="#ffffb3" stroke="#000000" points="522.6667,-122 411.3333,-122 411.3333,-86 522.6667,-86 522.6667,-122"/>
<text text-anchor="middle" x="467" y="-99.8" font-family="Times,serif" font-size="14.00" fill="#000000">FormComponent</text>
</g>
<!-- FormComponent&#45;&gt;ItemModuleModule -->
<g id="edge2" class="edge">
<title>FormComponent&#45;&gt;ItemModuleModule</title>
<path fill="none" stroke="#000000" d="M416.7725,-122.1061C416.7725,-122.1061 416.7725,-140.991 416.7725,-140.991"/>
<polygon fill="#000000" stroke="#000000" points="413.2725,-140.9909 416.7725,-150.991 420.2725,-140.991 413.2725,-140.9909"/>
</g>
<!-- FilterPipe -->
<g id="node3" class="node">
<title>FilterPipe</title>
<polygon fill="#ffffb3" stroke="#000000" points="393.7177,-122 322.2823,-122 322.2823,-86 393.7177,-86 393.7177,-122"/>
<text text-anchor="middle" x="358" y="-99.8" font-family="Times,serif" font-size="14.00" fill="#000000">FilterPipe</text>
</g>
<!-- FilterPipe&#45;&gt;ItemModuleModule -->
<g id="edge3" class="edge">
<title>FilterPipe&#45;&gt;ItemModuleModule</title>
<path fill="none" stroke="#000000" d="M358,-122.1061C358,-122.1061 358,-140.991 358,-140.991"/>
<polygon fill="#000000" stroke="#000000" points="354.5001,-140.9909 358,-150.991 361.5001,-140.991 354.5001,-140.9909"/>
</g>
<!-- StateDirective -->
<g id="node4" class="node">
<title>StateDirective</title>
<polygon fill="#ffffb3" stroke="#000000" points="304.0758,-122 207.9242,-122 207.9242,-86 304.0758,-86 304.0758,-122"/>
<text text-anchor="middle" x="256" y="-99.8" font-family="Times,serif" font-size="14.00" fill="#000000">StateDirective</text>
</g>
<!-- StateDirective&#45;&gt;ItemModuleModule -->
<g id="edge4" class="edge">
<title>StateDirective&#45;&gt;ItemModuleModule</title>
<path fill="none" stroke="#000000" d="M298.83,-122.1061C298.83,-122.1061 298.83,-140.991 298.83,-140.991"/>
<polygon fill="#000000" stroke="#000000" points="295.33,-140.9909 298.83,-150.991 302.33,-140.991 295.33,-140.9909"/>
</g>
<!-- CollectionService -->
<g id="node6" class="node">
<title>CollectionService</title>
<ellipse fill="#fdb462" stroke="#000000" cx="104" cy="-104" rx="80.4519" ry="18"/>
<text text-anchor="middle" x="104" y="-99.8" font-family="Times,serif" font-size="14.00" fill="#000000">CollectionService</text>
</g>
<!-- CollectionService&#45;&gt;ItemModuleModule -->
<g id="edge5" class="edge">
<title>CollectionService&#45;&gt;ItemModuleModule</title>
<path fill="none" stroke="#000000" d="M104,-122.1061C104,-141.3391 104,-169 104,-169 104,-169 283.5767,-169 283.5767,-169"/>
<polygon fill="#000000" stroke="#000000" points="283.5768,-172.5001 293.5767,-169 283.5767,-165.5001 283.5768,-172.5001"/>
</g>
</g>
</svg>
