<?xml version="1.0" encoding="UTF-8" standalone="no"?>
<!DOCTYPE svg PUBLIC "-//W3C//DTD SVG 1.1//EN"
 "http://www.w3.org/Graphics/SVG/1.1/DTD/svg11.dtd">
<!-- Generated by graphviz version 2.40.1 (20161225.0304)
 -->
<!-- Title: dependencies Pages: 1 -->
<svg width="1199pt" height="284pt"
 viewBox="0.00 0.00 1199.00 284.00" xmlns="http://www.w3.org/2000/svg" xmlns:xlink="http://www.w3.org/1999/xlink">
<g id="graph0" class="graph" transform="scale(1 1) rotate(0) translate(4 280)">
<title>dependencies</title>
<polygon fill="#ffffff" stroke="transparent" points="-4,4 -4,-280 1195,-280 1195,4 -4,4"/>
<text text-anchor="start" x="574.5091" y="-42.4" font-family="sans-serif" font-weight="bold" font-size="14.00" fill="#000000">Legend</text>
<polygon fill="#ffffb3" stroke="transparent" points="361.5,-10 361.5,-30 381.5,-30 381.5,-10 361.5,-10"/>
<text text-anchor="start" x="385.129" y="-15.4" font-family="sans-serif" font-size="14.00" fill="#000000"> &#160;Declarations</text>
<polygon fill="#8dd3c7" stroke="transparent" points="474.5,-10 474.5,-30 494.5,-30 494.5,-10 474.5,-10"/>
<text text-anchor="start" x="498.2251" y="-15.4" font-family="sans-serif" font-size="14.00" fill="#000000"> &#160;Module</text>
<polygon fill="#80b1d3" stroke="transparent" points="560.5,-10 560.5,-30 580.5,-30 580.5,-10 560.5,-10"/>
<text text-anchor="start" x="584.2812" y="-15.4" font-family="sans-serif" font-size="14.00" fill="#000000"> &#160;Bootstrap</text>
<polygon fill="#fdb462" stroke="transparent" points="657.5,-10 657.5,-30 677.5,-30 677.5,-10 657.5,-10"/>
<text text-anchor="start" x="681.1732" y="-15.4" font-family="sans-serif" font-size="14.00" fill="#000000"> &#160;Providers</text>
<polygon fill="#fb8072" stroke="transparent" points="753.5,-10 753.5,-30 773.5,-30 773.5,-10 753.5,-10"/>
<text text-anchor="start" x="777.2258" y="-15.4" font-family="sans-serif" font-size="14.00" fill="#000000"> &#160;Exports</text>
<g id="clust1" class="cluster">
<title>cluster_AppModule</title>
<polygon fill="none" stroke="#000000" stroke-dasharray="1,5" points="8,-70 8,-268 1183,-268 1183,-70 8,-70"/>
</g>
<g id="clust2" class="cluster">
<title>cluster_AppModule_declarations</title>
<polygon fill="none" stroke="#000000" points="468,-78 468,-130 1175,-130 1175,-78 468,-78"/>
</g>
<g id="clust8" class="cluster">
<title>cluster_AppModule_imports</title>
<polygon fill="none" stroke="#000000" points="16,-78 16,-130 460,-130 460,-78 16,-78"/>
</g>
<g id="clust10" class="cluster">
<title>cluster_AppModule_bootstrap</title>
<polygon fill="none" stroke="#000000" points="576,-208 576,-260 700,-260 700,-208 576,-208"/>
</g>
<!-- AppComponent -->
<g id="node1" class="node">
<title>AppComponent</title>
<polygon fill="#ffffb3" stroke="#000000" points="1166.9399,-122 1061.0601,-122 1061.0601,-86 1166.9399,-86 1166.9399,-122"/>
<text text-anchor="middle" x="1114" y="-99.8" font-family="Times,serif" font-size="14.00" fill="#000000">AppComponent</text>
</g>
<!-- AppModule -->
<g id="node6" class="node">
<title>AppModule</title>
<polygon fill="#8dd3c7" stroke="#000000" points="679.6571,-187 676.6571,-191 655.6571,-191 652.6571,-187 596.3429,-187 596.3429,-151 679.6571,-151 679.6571,-187"/>
<text text-anchor="middle" x="638" y="-164.8" font-family="Times,serif" font-size="14.00" fill="#000000">AppModule</text>
</g>
<!-- AppComponent&#45;&gt;AppModule -->
<g id="edge1" class="edge">
<title>AppComponent&#45;&gt;AppModule</title>
<path fill="none" stroke="#000000" d="M1114,-122.2921C1114,-144.2057 1114,-178 1114,-178 1114,-178 689.8246,-178 689.8246,-178"/>
<polygon fill="#000000" stroke="#000000" points="689.8247,-174.5001 679.8246,-178 689.8246,-181.5001 689.8247,-174.5001"/>
</g>
<!-- MenuComponent -->
<g id="node2" class="node">
<title>MenuComponent</title>
<polygon fill="#ffffb3" stroke="#000000" points="1042.9916,-122 929.0084,-122 929.0084,-86 1042.9916,-86 1042.9916,-122"/>
<text text-anchor="middle" x="986" y="-99.8" font-family="Times,serif" font-size="14.00" fill="#000000">MenuComponent</text>
</g>
<!-- MenuComponent&#45;&gt;AppModule -->
<g id="edge2" class="edge">
<title>MenuComponent&#45;&gt;AppModule</title>
<path fill="none" stroke="#000000" d="M986,-122.1061C986,-141.3391 986,-169 986,-169 986,-169 689.9769,-169 689.9769,-169"/>
<polygon fill="#000000" stroke="#000000" points="689.977,-165.5001 679.9769,-169 689.9769,-172.5001 689.977,-165.5001"/>
</g>
<!-- ModalComponent -->
<g id="node3" class="node">
<title>ModalComponent</title>
<polygon fill="#ffffb3" stroke="#000000" points="910.8823,-122 793.1177,-122 793.1177,-86 910.8823,-86 910.8823,-122"/>
<text text-anchor="middle" x="852" y="-99.8" font-family="Times,serif" font-size="14.00" fill="#000000">ModalComponent</text>
</g>
<!-- ModalComponent&#45;&gt;AppModule -->
<g id="edge3" class="edge">
<title>ModalComponent&#45;&gt;AppModule</title>
<path fill="none" stroke="#000000" d="M852,-122.027C852,-138.3976 852,-160 852,-160 852,-160 689.7694,-160 689.7694,-160"/>
<polygon fill="#000000" stroke="#000000" points="689.7694,-156.5001 679.7694,-160 689.7693,-163.5001 689.7694,-156.5001"/>
</g>
<!-- HomeComponent -->
<g id="node4" class="node">
<title>HomeComponent</title>
<polygon fill="#ffffb3" stroke="#000000" points="774.5451,-122 659.4549,-122 659.4549,-86 774.5451,-86 774.5451,-122"/>
<text text-anchor="middle" x="717" y="-99.8" font-family="Times,serif" font-size="14.00" fill="#000000">HomeComponent</text>
</g>
<!-- HomeComponent&#45;&gt;AppModule -->
<g id="edge4" class="edge">
<title>HomeComponent&#45;&gt;AppModule</title>
<path fill="none" stroke="#000000" d="M669.5281,-122.1061C669.5281,-122.1061 669.5281,-140.991 669.5281,-140.991"/>
<polygon fill="#000000" stroke="#000000" points="666.0281,-140.9909 669.5281,-150.991 673.0281,-140.991 666.0281,-140.9909"/>
</g>
<!-- PageNotFoundComponent -->
<g id="node5" class="node">
<title>PageNotFoundComponent</title>
<polygon fill="#ffffb3" stroke="#000000" points="641.8243,-122 476.1757,-122 476.1757,-86 641.8243,-86 641.8243,-122"/>
<text text-anchor="middle" x="559" y="-99.8" font-family="Times,serif" font-size="14.00" fill="#000000">PageNotFoundComponent</text>
</g>
<!-- PageNotFoundComponent&#45;&gt;AppModule -->
<g id="edge5" class="edge">
<title>PageNotFoundComponent&#45;&gt;AppModule</title>
<path fill="none" stroke="#000000" d="M618.9169,-122.1061C618.9169,-122.1061 618.9169,-140.991 618.9169,-140.991"/>
<polygon fill="#000000" stroke="#000000" points="615.417,-140.9909 618.9169,-150.991 622.417,-140.991 615.417,-140.9909"/>
</g>
<!-- AppComponent  -->
<g id="node10" class="node">
<title>AppComponent </title>
<polygon fill="#80b1d3" stroke="#000000" points="692.439,-252 583.561,-252 583.561,-216 692.439,-216 692.439,-252"/>
<text text-anchor="middle" x="638" y="-229.8" font-family="Times,serif" font-size="14.00" fill="#000000">AppComponent </text>
</g>
<!-- AppModule&#45;&gt;AppComponent  -->
<g id="edge9" class="edge">
<title>AppModule&#45;&gt;AppComponent </title>
<path fill="none" stroke="#000000" stroke-dasharray="1,5" d="M638,-187.1061C638,-187.1061 638,-205.991 638,-205.991"/>
<polygon fill="#000000" stroke="#000000" points="634.5001,-205.9909 638,-215.991 641.5001,-205.991 634.5001,-205.9909"/>
</g>
<!-- ItemModuleModule -->
<g id="node7" class="node">
<title>ItemModuleModule</title>
<polygon fill="#8dd3c7" stroke="#000000" points="452.2562,-122 449.2562,-126 428.2562,-126 425.2562,-122 323.7438,-122 323.7438,-86 452.2562,-86 452.2562,-122"/>
<text text-anchor="middle" x="388" y="-99.8" font-family="Times,serif" font-size="14.00" fill="#000000">ItemModuleModule</text>
</g>
<!-- ItemModuleModule&#45;&gt;AppModule -->
<g id="edge6" class="edge">
<title>ItemModuleModule&#45;&gt;AppModule</title>
<path fill="none" stroke="#000000" d="M388,-122.027C388,-138.3976 388,-160 388,-160 388,-160 586.1556,-160 586.1556,-160"/>
<polygon fill="#000000" stroke="#000000" points="586.1557,-163.5001 596.1556,-160 586.1556,-156.5001 586.1557,-163.5001"/>
</g>
<!-- ItemsRoutingModule -->
<g id="node8" class="node">
<title>ItemsRoutingModule</title>
<polygon fill="#8dd3c7" stroke="#000000" points="305.7688,-122 302.7688,-126 281.7688,-126 278.7688,-122 170.2312,-122 170.2312,-86 305.7688,-86 305.7688,-122"/>
<text text-anchor="middle" x="238" y="-99.8" font-family="Times,serif" font-size="14.00" fill="#000000">ItemsRoutingModule</text>
</g>
<!-- ItemsRoutingModule&#45;&gt;AppModule -->
<g id="edge7" class="edge">
<title>ItemsRoutingModule&#45;&gt;AppModule</title>
<path fill="none" stroke="#000000" d="M238,-122.1061C238,-141.3391 238,-169 238,-169 238,-169 586.325,-169 586.325,-169"/>
<polygon fill="#000000" stroke="#000000" points="586.325,-172.5001 596.325,-169 586.3249,-165.5001 586.325,-172.5001"/>
</g>
<!-- AppRoutingModule -->
<g id="node9" class="node">
<title>AppRoutingModule</title>
<polygon fill="#8dd3c7" stroke="#000000" points="152.2744,-122 149.2744,-126 128.2744,-126 125.2744,-122 23.7256,-122 23.7256,-86 152.2744,-86 152.2744,-122"/>
<text text-anchor="middle" x="88" y="-99.8" font-family="Times,serif" font-size="14.00" fill="#000000">AppRoutingModule</text>
</g>
<!-- AppRoutingModule&#45;&gt;AppModule -->
<g id="edge8" class="edge">
<title>AppRoutingModule&#45;&gt;AppModule</title>
<path fill="none" stroke="#000000" d="M88,-122.2921C88,-144.2057 88,-178 88,-178 88,-178 586.2092,-178 586.2092,-178"/>
<polygon fill="#000000" stroke="#000000" points="586.2092,-181.5001 596.2092,-178 586.2091,-174.5001 586.2092,-181.5001"/>
</g>
</g>
</svg>
