<?xml version="1.0" encoding="UTF-8" standalone="no"?>
<!DOCTYPE svg PUBLIC "-//W3C//DTD SVG 1.1//EN"
 "http://www.w3.org/Graphics/SVG/1.1/DTD/svg11.dtd">
<!-- Generated by graphviz version 2.40.1 (20161225.0304)
 -->
<!-- Title: dependencies Pages: 1 -->
<svg width="1199pt" height="360pt"
 viewBox="0.00 0.00 1199.00 360.00" xmlns="http://www.w3.org/2000/svg" xmlns:xlink="http://www.w3.org/1999/xlink">
<g id="graph0" class="graph" transform="scale(1 1) rotate(0) translate(4 356)">
<title>dependencies</title>
<polygon fill="#ffffff" stroke="transparent" points="-4,4 -4,-356 1195,-356 1195,4 -4,4"/>
<text text-anchor="start" x="574.5091" y="-42.4" font-family="sans-serif" font-weight="bold" font-size="14.00" fill="#000000">Legend</text>
<polygon fill="#ffffb3" stroke="transparent" points="361.5,-10 361.5,-30 381.5,-30 381.5,-10 361.5,-10"/>
<text text-anchor="start" x="385.129" y="-15.4" font-family="sans-serif" font-size="14.00" fill="#000000"> &#160;Declarations</text>
<polygon fill="#8dd3c7" stroke="transparent" points="474.5,-10 474.5,-30 494.5,-30 494.5,-10 474.5,-10"/>
<text text-anchor="start" x="498.2251" y="-15.4" font-family="sans-serif" font-size="14.00" fill="#000000"> &#160;Module</text>
<polygon fill="#80b1d3" stroke="transparent" points="560.5,-10 560.5,-30 580.5,-30 580.5,-10 560.5,-10"/>
<text text-anchor="start" x="584.2812" y="-15.4" font-family="sans-serif" font-size="14.00" fill="#000000"> &#160;Bootstrap</text>
<polygon fill="#fdb462" stroke="transparent" points="657.5,-10 657.5,-30 677.5,-30 677.5,-10 657.5,-10"/>
<text text-anchor="start" x="681.1732" y="-15.4" font-family="sans-serif" font-size="14.00" fill="#000000"> &#160;Providers</text>
<polygon fill="#fb8072" stroke="transparent" points="753.5,-10 753.5,-30 773.5,-30 773.5,-10 753.5,-10"/>
<text text-anchor="start" x="777.2258" y="-15.4" font-family="sans-serif" font-size="14.00" fill="#000000"> &#160;Exports</text>
<g id="clust1" class="cluster">
<title>cluster_AppModule</title>
<polygon fill="none" stroke="#000000" stroke-dasharray="1,5" points="8,-146 8,-344 1183,-344 1183,-146 8,-146"/>
</g>
<g id="clust2" class="cluster">
<title>cluster_AppModule_declarations</title>
<polygon fill="none" stroke="#000000" points="468,-154 468,-206 1175,-206 1175,-154 468,-154"/>
</g>
<g id="clust8" class="cluster">
<title>cluster_AppModule_imports</title>
<polygon fill="none" stroke="#000000" points="16,-154 16,-206 460,-206 460,-154 16,-154"/>
</g>
<g id="clust10" class="cluster">
<title>cluster_AppModule_bootstrap</title>
<polygon fill="none" stroke="#000000" points="576,-284 576,-336 700,-336 700,-284 576,-284"/>
</g>
<g id="clust18" class="cluster">
<title>cluster_ItemModuleModule</title>
<polygon fill="none" stroke="#000000" stroke-dasharray="1,5" points="38,-70 38,-138 715,-138 715,-70 38,-70"/>
</g>
<g id="clust19" class="cluster">
<title>cluster_ItemModuleModule_declarations</title>
<polygon fill="none" stroke="#000000" points="230,-78 230,-130 707,-130 707,-78 230,-78"/>
</g>
<g id="clust27" class="cluster">
<title>cluster_ItemModuleModule_providers</title>
<polygon fill="none" stroke="#000000" points="46,-78 46,-130 222,-130 222,-78 46,-78"/>
</g>
<!-- AppComponent -->
<g id="node1" class="node">
<title>AppComponent</title>
<polygon fill="#ffffb3" stroke="#000000" points="1166.9399,-198 1061.0601,-198 1061.0601,-162 1166.9399,-162 1166.9399,-198"/>
<text text-anchor="middle" x="1114" y="-175.8" font-family="Times,serif" font-size="14.00" fill="#000000">AppComponent</text>
</g>
<!-- AppModule -->
<g id="node6" class="node">
<title>AppModule</title>
<polygon fill="#8dd3c7" stroke="#000000" points="679.6571,-263 676.6571,-267 655.6571,-267 652.6571,-263 596.3429,-263 596.3429,-227 679.6571,-227 679.6571,-263"/>
<text text-anchor="middle" x="638" y="-240.8" font-family="Times,serif" font-size="14.00" fill="#000000">AppModule</text>
</g>
<!-- AppComponent&#45;&gt;AppModule -->
<g id="edge1" class="edge">
<title>AppComponent&#45;&gt;AppModule</title>
<path fill="none" stroke="#000000" d="M1114,-198.2921C1114,-220.2057 1114,-254 1114,-254 1114,-254 689.8246,-254 689.8246,-254"/>
<polygon fill="#000000" stroke="#000000" points="689.8247,-250.5001 679.8246,-254 689.8246,-257.5001 689.8247,-250.5001"/>
</g>
<!-- MenuComponent -->
<g id="node2" class="node">
<title>MenuComponent</title>
<polygon fill="#ffffb3" stroke="#000000" points="1042.9916,-198 929.0084,-198 929.0084,-162 1042.9916,-162 1042.9916,-198"/>
<text text-anchor="middle" x="986" y="-175.8" font-family="Times,serif" font-size="14.00" fill="#000000">MenuComponent</text>
</g>
<!-- MenuComponent&#45;&gt;AppModule -->
<g id="edge2" class="edge">
<title>MenuComponent&#45;&gt;AppModule</title>
<path fill="none" stroke="#000000" d="M986,-198.1061C986,-217.3391 986,-245 986,-245 986,-245 689.9769,-245 689.9769,-245"/>
<polygon fill="#000000" stroke="#000000" points="689.977,-241.5001 679.9769,-245 689.9769,-248.5001 689.977,-241.5001"/>
</g>
<!-- ModalComponent -->
<g id="node3" class="node">
<title>ModalComponent</title>
<polygon fill="#ffffb3" stroke="#000000" points="910.8823,-198 793.1177,-198 793.1177,-162 910.8823,-162 910.8823,-198"/>
<text text-anchor="middle" x="852" y="-175.8" font-family="Times,serif" font-size="14.00" fill="#000000">ModalComponent</text>
</g>
<!-- ModalComponent&#45;&gt;AppModule -->
<g id="edge3" class="edge">
<title>ModalComponent&#45;&gt;AppModule</title>
<path fill="none" stroke="#000000" d="M852,-198.027C852,-214.3976 852,-236 852,-236 852,-236 689.7694,-236 689.7694,-236"/>
<polygon fill="#000000" stroke="#000000" points="689.7694,-232.5001 679.7694,-236 689.7693,-239.5001 689.7694,-232.5001"/>
</g>
<!-- HomeComponent -->
<g id="node4" class="node">
<title>HomeComponent</title>
<polygon fill="#ffffb3" stroke="#000000" points="774.5451,-198 659.4549,-198 659.4549,-162 774.5451,-162 774.5451,-198"/>
<text text-anchor="middle" x="717" y="-175.8" font-family="Times,serif" font-size="14.00" fill="#000000">HomeComponent</text>
</g>
<!-- HomeComponent&#45;&gt;AppModule -->
<g id="edge4" class="edge">
<title>HomeComponent&#45;&gt;AppModule</title>
<path fill="none" stroke="#000000" d="M669.5281,-198.1061C669.5281,-198.1061 669.5281,-216.991 669.5281,-216.991"/>
<polygon fill="#000000" stroke="#000000" points="666.0281,-216.9909 669.5281,-226.991 673.0281,-216.991 666.0281,-216.9909"/>
</g>
<!-- PageNotFoundComponent -->
<g id="node5" class="node">
<title>PageNotFoundComponent</title>
<polygon fill="#ffffb3" stroke="#000000" points="641.8243,-198 476.1757,-198 476.1757,-162 641.8243,-162 641.8243,-198"/>
<text text-anchor="middle" x="559" y="-175.8" font-family="Times,serif" font-size="14.00" fill="#000000">PageNotFoundComponent</text>
</g>
<!-- PageNotFoundComponent&#45;&gt;AppModule -->
<g id="edge5" class="edge">
<title>PageNotFoundComponent&#45;&gt;AppModule</title>
<path fill="none" stroke="#000000" d="M618.9169,-198.1061C618.9169,-198.1061 618.9169,-216.991 618.9169,-216.991"/>
<polygon fill="#000000" stroke="#000000" points="615.417,-216.9909 618.9169,-226.991 622.417,-216.991 615.417,-216.9909"/>
</g>
<!-- AppComponent  -->
<g id="node10" class="node">
<title>AppComponent </title>
<polygon fill="#80b1d3" stroke="#000000" points="692.439,-328 583.561,-328 583.561,-292 692.439,-292 692.439,-328"/>
<text text-anchor="middle" x="638" y="-305.8" font-family="Times,serif" font-size="14.00" fill="#000000">AppComponent </text>
</g>
<!-- AppModule&#45;&gt;AppComponent  -->
<g id="edge9" class="edge">
<title>AppModule&#45;&gt;AppComponent </title>
<path fill="none" stroke="#000000" stroke-dasharray="1,5" d="M638,-263.1061C638,-263.1061 638,-281.991 638,-281.991"/>
<polygon fill="#000000" stroke="#000000" points="634.5001,-281.9909 638,-291.991 641.5001,-281.991 634.5001,-281.9909"/>
</g>
<!-- ItemModuleModule -->
<g id="node7" class="node">
<title>ItemModuleModule</title>
<polygon fill="#8dd3c7" stroke="#000000" points="452.2562,-198 449.2562,-202 428.2562,-202 425.2562,-198 323.7438,-198 323.7438,-162 452.2562,-162 452.2562,-198"/>
<text text-anchor="middle" x="388" y="-175.8" font-family="Times,serif" font-size="14.00" fill="#000000">ItemModuleModule</text>
</g>
<!-- ItemModuleModule&#45;&gt;AppModule -->
<g id="edge6" class="edge">
<title>ItemModuleModule&#45;&gt;AppModule</title>
<path fill="none" stroke="#000000" d="M388,-198.027C388,-214.3976 388,-236 388,-236 388,-236 586.1556,-236 586.1556,-236"/>
<polygon fill="#000000" stroke="#000000" points="586.1557,-239.5001 596.1556,-236 586.1556,-232.5001 586.1557,-239.5001"/>
</g>
<!-- ItemsRoutingModule -->
<g id="node8" class="node">
<title>ItemsRoutingModule</title>
<polygon fill="#8dd3c7" stroke="#000000" points="305.7688,-198 302.7688,-202 281.7688,-202 278.7688,-198 170.2312,-198 170.2312,-162 305.7688,-162 305.7688,-198"/>
<text text-anchor="middle" x="238" y="-175.8" font-family="Times,serif" font-size="14.00" fill="#000000">ItemsRoutingModule</text>
</g>
<!-- ItemsRoutingModule&#45;&gt;AppModule -->
<g id="edge7" class="edge">
<title>ItemsRoutingModule&#45;&gt;AppModule</title>
<path fill="none" stroke="#000000" d="M238,-198.1061C238,-217.3391 238,-245 238,-245 238,-245 586.325,-245 586.325,-245"/>
<polygon fill="#000000" stroke="#000000" points="586.325,-248.5001 596.325,-245 586.3249,-241.5001 586.325,-248.5001"/>
</g>
<!-- AppRoutingModule -->
<g id="node9" class="node">
<title>AppRoutingModule</title>
<polygon fill="#8dd3c7" stroke="#000000" points="152.2744,-198 149.2744,-202 128.2744,-202 125.2744,-198 23.7256,-198 23.7256,-162 152.2744,-162 152.2744,-198"/>
<text text-anchor="middle" x="88" y="-175.8" font-family="Times,serif" font-size="14.00" fill="#000000">AppRoutingModule</text>
</g>
<!-- AppRoutingModule&#45;&gt;AppModule -->
<g id="edge8" class="edge">
<title>AppRoutingModule&#45;&gt;AppModule</title>
<path fill="none" stroke="#000000" d="M88,-198.2921C88,-220.2057 88,-254 88,-254 88,-254 586.2092,-254 586.2092,-254"/>
<polygon fill="#000000" stroke="#000000" points="586.2092,-257.5001 596.2092,-254 586.2091,-250.5001 586.2092,-257.5001"/>
</g>
<!-- ListItemComponent -->
<g id="node11" class="node">
<title>ListItemComponent</title>
<polygon fill="#ffffb3" stroke="#000000" points="699.2674,-122 570.7326,-122 570.7326,-86 699.2674,-86 699.2674,-122"/>
<text text-anchor="middle" x="635" y="-99.8" font-family="Times,serif" font-size="14.00" fill="#000000">ListItemComponent</text>
</g>
<!-- ListItemComponent&#45;&gt;ItemModuleModule -->
<g id="edge10" class="edge">
<title>ListItemComponent&#45;&gt;ItemModuleModule</title>
<path fill="none" stroke="#000000" d="M606.1392,-122.0439C606.1392,-134.5633 606.1392,-149 606.1392,-149 606.1392,-149 448.641,-149 448.641,-149 448.641,-149 448.641,-151.9672 448.641,-151.9672"/>
<polygon fill="#000000" stroke="#000000" points="445.1411,-151.9671 448.641,-161.9672 452.1411,-151.9672 445.1411,-151.9671"/>
</g>
<!-- FormComponent -->
<g id="node12" class="node">
<title>FormComponent</title>
<polygon fill="#ffffb3" stroke="#000000" points="552.6667,-122 441.3333,-122 441.3333,-86 552.6667,-86 552.6667,-122"/>
<text text-anchor="middle" x="497" y="-99.8" font-family="Times,serif" font-size="14.00" fill="#000000">FormComponent</text>
</g>
<!-- FormComponent&#45;&gt;ItemModuleModule -->
<g id="edge11" class="edge">
<title>FormComponent&#45;&gt;ItemModuleModule</title>
<path fill="none" stroke="#000000" d="M444.9039,-122.0109C444.9039,-122.0109 444.9039,-151.855 444.9039,-151.855"/>
<polygon fill="#000000" stroke="#000000" points="441.404,-151.8549 444.9039,-161.855 448.404,-151.855 441.404,-151.8549"/>
</g>
<!-- FilterPipe -->
<g id="node13" class="node">
<title>FilterPipe</title>
<polygon fill="#ffffb3" stroke="#000000" points="423.7177,-122 352.2823,-122 352.2823,-86 423.7177,-86 423.7177,-122"/>
<text text-anchor="middle" x="388" y="-99.8" font-family="Times,serif" font-size="14.00" fill="#000000">FilterPipe</text>
</g>
<!-- FilterPipe&#45;&gt;ItemModuleModule -->
<g id="edge12" class="edge">
<title>FilterPipe&#45;&gt;ItemModuleModule</title>
<path fill="none" stroke="#000000" d="M388,-122.0109C388,-122.0109 388,-151.855 388,-151.855"/>
<polygon fill="#000000" stroke="#000000" points="384.5001,-151.8549 388,-161.855 391.5001,-151.855 384.5001,-151.8549"/>
</g>
<!-- StateDirective -->
<g id="node14" class="node">
<title>StateDirective</title>
<polygon fill="#ffffb3" stroke="#000000" points="334.0758,-122 237.9242,-122 237.9242,-86 334.0758,-86 334.0758,-122"/>
<text text-anchor="middle" x="286" y="-99.8" font-family="Times,serif" font-size="14.00" fill="#000000">StateDirective</text>
</g>
<!-- StateDirective&#45;&gt;ItemModuleModule -->
<g id="edge13" class="edge">
<title>StateDirective&#45;&gt;ItemModuleModule</title>
<path fill="none" stroke="#000000" d="M330.5659,-122.0109C330.5659,-122.0109 330.5659,-151.855 330.5659,-151.855"/>
<polygon fill="#000000" stroke="#000000" points="327.066,-151.8549 330.5659,-161.855 334.066,-151.855 327.066,-151.8549"/>
</g>
<!-- CollectionService -->
<g id="node15" class="node">
<title>CollectionService</title>
<ellipse fill="#fdb462" stroke="#000000" cx="134" cy="-104" rx="80.4519" ry="18"/>
<text text-anchor="middle" x="134" y="-99.8" font-family="Times,serif" font-size="14.00" fill="#000000">CollectionService</text>
</g>
<!-- CollectionService&#45;&gt;ItemModuleModule -->
<g id="edge14" class="edge">
<title>CollectionService&#45;&gt;ItemModuleModule</title>
<path fill="none" stroke="#000000" d="M192.1707,-116.6472C192.1707,-125.5918 192.1707,-136 192.1707,-136 192.1707,-136 327.094,-136 327.094,-136 327.094,-136 327.094,-151.8495 327.094,-151.8495"/>
<polygon fill="#000000" stroke="#000000" points="323.5941,-151.8494 327.094,-161.8495 330.5941,-151.8495 323.5941,-151.8494"/>
</g>
</g>
</svg>
